<svg width="13" height="12" viewBox="0 0 13 12" version="1.1" xmlns="http://www.w3.org/2000/svg" xmlns:xlink="http://www.w3.org/1999/xlink">
<title>Component</title>
<desc>Created using Figma</desc>
<g id="Canvas" transform="translate(41 41)">
<g id="Component">
<g id="Ellipse 2">
<mask id="mask0_outline_ins">
<use xlink:href="#path0_fill" fill="white" transform="translate(-40.05 -40.5)"/>
<use xlink:href="#path1_fill" fill="white" transform="translate(-40.05 -40.5)"/>
</mask>
<g mask="url(#mask0_outline_ins)">
<use xlink:href="#path2_stroke_2x" transform="translate(-40.05 -40.5)" fill="#5C5C5C"/>
</g>
</g>
<g id="Line 2">
<use xlink:href="#path3_stroke" transform="matrix(0.707107 -0.707107 0.707107 0.707107 -39.2566 -30.2434)" fill="#5C5C5C"/>
</g>
</g>
</g>
<defs>
<path id="path0_fill" d="M 5 2.5C 5 3.88071 3.88071 5 2.5 5C 1.11929 5 0 3.88071 0 2.5C 0 1.11929 1.11929 0 2.5 0C 3.88071 0 5 1.11929 5 2.5Z"/>
<path id="path1_fill" d="M 12 8C 12 9.38071 10.8807 10.5 9.5 10.5C 8.11929 10.5 7 9.38071 7 8C 7 6.61929 8.11929 5.5 9.5 5.5C 10.8807 5.5 12 6.61929 12 8Z"/>
<path id="path2_stroke_2x" d="M 4 2.5C 4 3.32843 3.32843 4 2.5 4L 2.5 6C 4.433 6 6 4.433 6 2.5L 4 2.5ZM 2.5 4C 1.67157 4 1 3.32843 1 2.5L -1 2.5C -1 4.433 0.567003 6 2.5 6L 2.5 4ZM 1 2.5C 1 1.67157 1.67157 1 2.5 1L 2.5 -1C 0.567003 -1 -1 0.567003 -1 2.5L 1 2.5ZM 2.5 1C 3.32843 1 4 1.67157 4 2.5L 6 2.5C 6 0.567003 4.433 -1 2.5 -1L 2.5 1ZM 11 8C 11 8.82843 10.3284 9.5 9.5 9.5L 9.5 11.5C 11.433 11.5 13 9.933 13 8L 11 8ZM 9.5 9.5C 8.67157 9.5 8 8.82843 8 8L 6 8C 6 9.933 7.56701 11.5 9.5 11.5L 9.5 9.5ZM 8 8C 8 7.17157 8.67157 6.5 9.5 6.5L 9.5 4.5C 7.56701 4.5 6 6.067 6 8L 8 8ZM 9.5 6.5C 10.3284 6.5 11 7.17157 11 8L 13 8C 13 6.067 11.433 4.5 9.5 4.5L 9.5 6.5Z"/>
<path id="path3_stroke" d="M 0.00750421 0.707051L 13.8054 0.499944L 13.7904 -0.499944L -0.00750421 -0.292836L 0.00750421 0.707051Z"/>
</defs>
</svg>
