<svg width="405" height="829" viewBox="0 0 405 829" version="1.1" xmlns="http://www.w3.org/2000/svg" xmlns:xlink="http://www.w3.org/1999/xlink">
<title>Component</title>
<desc>Created using Figma</desc>
<g id="Canvas" transform="translate(230 521)">
<g id="Component">
<g id="pixel_black">
<g id="Vector">
<use xlink:href="#path0_fill" transform="translate(-230 -521)" fill="#424242"/>
</g>
<g id="Vector">
<use xlink:href="#path1_fill" transform="translate(-230 -521)" fill="#353535"/>
</g>
<g id="Vector">
<use xlink:href="#path2_fill" transform="translate(-222 -513)" fill="#1D1D1D"/>
</g>
<g id="Vector">
<use xlink:href="#path3_fill" transform="translate(-210 -451)"/>
</g>
<g id="Vector">
<use xlink:href="#path4_fill" transform="translate(-209 -427)" fill="#FFFFFF"/>
</g>
<g id="Vector">
<use xlink:href="#path5_fill" transform="translate(-161 -488)" fill="#424242"/>
</g>
<g id="Vector">
<use xlink:href="#path6_fill" transform="translate(-157 -484)" fill="#212121"/>
</g>
</g>
<g id="Rectangle">
<use xlink:href="#path7_fill" transform="translate(-209 157)"/>
</g>
<g id="Polygon">
<mask id="mask0_outline_ins">
<use xlink:href="#path8_fill" fill="white" transform="matrix(1.80411e-16 -1 1 1.80411e-16 -137 197)"/>
</mask>
<g mask="url(#mask0_outline_ins)">
<use xlink:href="#path9_stroke_2x" transform="matrix(1.80411e-16 -1 1 1.80411e-16 -137 197)" fill="#FFFFFF"/>
</g>
</g>
<g id="Ellipse">
<mask id="mask1_outline_ins">
<use xlink:href="#path10_fill" fill="white" transform="translate(-41 173)"/>
</mask>
<g mask="url(#mask1_outline_ins)">
<use xlink:href="#path11_stroke_2x" transform="translate(-41 173)" fill="#FFFFFF"/>
</g>
</g>
<g id="Rectangle 2">
<mask id="mask2_outline_ins">
<use xlink:href="#path12_fill" fill="white" transform="translate(56 173)"/>
</mask>
<g mask="url(#mask2_outline_ins)">
<use xlink:href="#path13_stroke_2x" transform="translate(56 173)" fill="#FFFFFF"/>
</g>
</g>
</g>
</g>
<defs>
<path id="path0_fill" d="M 339 0L 63 0C 28.2061 0 0 28.2061 0 63L 0 766C 0 800.794 28.2061 829 63 829L 339 829C 373.794 829 402 800.794 402 766L 402 446C 403.657 446 405 444.657 405 443L 405 335C 405 333.343 403.657 332 402 332L 402 262C 403.657 262 405 260.657 405 259L 405 208C 405 206.343 403.657 205 402 205L 402 63C 402 28.2061 373.794 0 339 0Z"/>
<path id="path1_fill" d="M 284 87L 0 87L 0 77L 284 77L 284 0L 292 0L 292 77L 402 77L 402 87L 292 87L 292 771L 401.804 771C 401.481 775.124 400.76 779.137 399.68 783L 2.32031 783C 1.24036 779.137 0.519409 775.124 0.195557 771L 284 771L 284 87Z"/>
<path id="path2_fill" d="M 0 55C 0 24.6243 24.6243 0 55 0L 331 0C 361.376 0 386 24.6243 386 55L 386 758C 386 788.376 361.376 813 331 813L 55 813C 24.6243 813 0 788.376 0 758L 0 55Z"/>
<path id="path3_fill" d="M 165 6.5C 165 2.91015 167.91 0 171.5 0L 190.5 0C 194.09 0 197 2.91015 197 6.5C 197 10.0899 194.09 13 190.5 13L 171.5 13C 167.91 13 165 10.0899 165 6.5ZM 0 23L 362 23L 362 665L 0 665L 0 23Z"/>
<path id="path4_fill" d="M 0 0L 360 0L 360 640L 0 640L 0 0Z"/>
<path id="path5_fill" d="M 18 9C 18 13.9706 13.9706 18 9 18C 4.02944 18 0 13.9706 0 9C 0 4.02944 4.02944 0 9 0C 13.9706 0 18 4.02944 18 9ZM 88 9C 88 7.34315 89.3431 6 91 6L 173 6C 174.657 6 176 7.34315 176 9C 176 10.6568 174.657 12 173 12L 91 12C 89.3431 12 88 10.6568 88 9Z"/>
<path id="path6_fill" d="M 10 5C 10 7.76142 7.76142 10 5 10C 2.23858 10 0 7.76142 0 5C 0 2.23858 2.23858 0 5 0C 7.76142 0 10 2.23858 10 5Z"/>
<path id="path7_fill" d="M 0 0L 361 0L 361 56L 0 56L 0 0Z"/>
<path id="path8_fill" d="M 12 0L 22.3923 18L 1.6077 18L 12 0Z"/>
<path id="path9_stroke_2x" d="M 12 0L 12.866 -0.5L 12 -2L 11.134 -0.5L 12 0ZM 22.3923 18L 22.3923 19L 24.1244 19L 23.2583 17.5L 22.3923 18ZM 1.6077 18L 0.74167 17.5L -0.124356 19L 1.6077 19L 1.6077 18ZM 11.134 0.5L 21.5263 18.5L 23.2583 17.5L 12.866 -0.5L 11.134 0.5ZM 22.3923 17L 1.6077 17L 1.6077 19L 22.3923 19L 22.3923 17ZM 2.47372 18.5L 12.866 0.5L 11.134 -0.5L 0.74167 17.5L 2.47372 18.5Z"/>
<path id="path10_fill" d="M 24 12C 24 18.6274 18.6274 24 12 24C 5.37258 24 0 18.6274 0 12C 0 5.37258 5.37258 0 12 0C 18.6274 0 24 5.37258 24 12Z"/>
<path id="path11_stroke_2x" d="M 23 12C 23 18.0751 18.0751 23 12 23L 12 25C 19.1797 25 25 19.1797 25 12L 23 12ZM 12 23C 5.92487 23 1 18.0751 1 12L -1 12C -1 19.1797 4.8203 25 12 25L 12 23ZM 1 12C 1 5.92487 5.92487 1 12 1L 12 -1C 4.8203 -1 -1 4.8203 -1 12L 1 12ZM 12 1C 18.0751 1 23 5.92487 23 12L 25 12C 25 4.8203 19.1797 -1 12 -1L 12 1Z"/>
<path id="path12_fill" d="M 0 0L 24 0L 24 24L 0 24L 0 0Z"/>
<path id="path13_stroke_2x" d="M 0 0L 0 -1L -1 -1L -1 0L 0 0ZM 24 0L 25 0L 25 -1L 24 -1L 24 0ZM 24 24L 24 25L 25 25L 25 24L 24 24ZM 0 24L -1 24L -1 25L 0 25L 0 24ZM 0 1L 24 1L 24 -1L 0 -1L 0 1ZM 23 0L 23 24L 25 24L 25 0L 23 0ZM 24 23L 0 23L 0 25L 24 25L 24 23ZM 1 24L 1 0L -1 0L -1 24L 1 24Z"/>
</defs>
</svg>
