<svg width="18" height="19" viewBox="0 0 18 19" version="1.1" xmlns="http://www.w3.org/2000/svg" xmlns:xlink="http://www.w3.org/1999/xlink">
<title>Component</title>
<desc>Created using Figma</desc>
<g id="Canvas" transform="translate(313 387)">
<g id="Component">
<g id="Rectangle 4">
<use xlink:href="#path0_fill" transform="translate(-301 -383)" fill="#020202"/>
</g>
<g id="Rectangle 5">
<use xlink:href="#path1_fill" transform="translate(-305 -379)" fill="#020202"/>
</g>
<g id="Rectangle 6">
<use xlink:href="#path2_fill" transform="translate(-309 -375)" fill="#020202"/>
</g>
<g id="Rectangle 7">
<use xlink:href="#path3_fill" transform="translate(-313 -371)" fill="#020202"/>
</g>
<g id="Rectangle 1">
<use xlink:href="#path4_fill" transform="translate(-297 -387)" fill="#020202"/>
</g>
</g>
</g>
<defs>
<path id="path0_fill" d="M 0 0L 2 0L 2 15L 0 15L 0 0Z"/>
<path id="path1_fill" d="M 0 0L 2 0L 2 11L 0 11L 0 0Z"/>
<path id="path2_fill" d="M 0 0L 2 0L 2 7L 0 7L 0 0Z"/>
<path id="path3_fill" d="M 0 0L 2 0L 2 3L 0 3L 0 0Z"/>
<path id="path4_fill" d="M 0 0L 2 0L 2 19L 0 19L 0 0Z"/>
</defs>
</svg>
